<svg xmlns="http://www.w3.org/2000/svg" width="59" height="41" viewBox="0 0 59 41"><path fill="#ffffff" d="M29.5.7c-2 0-3.9.3-5.5 1l-20.7 8.4c-.8.3-1.4.7-1.9 1.2-.4.4-.7 1-.7 1.6 0 .6.3 1.2.7 1.6.5.4 1.1.8 1.9 1.2l2.6 1.1-2.6 1.1c-.8.3-1.4.7-1.9 1.2-.4.4-.7 1-.7 1.6 0 .6.3 1.2.7 1.6.5.5 1.1.9 1.9 1.2l2.6 1.1-2.6 1.1c-.8.3-1.4.7-1.9 1.2-.4.4-.7 1-.7 1.6 0 .6.3 1.2.7 1.6.5.5 1.1.8 1.9 1.2l20.7 8.1c3.1 1.2 7.8 1.2 10.9 0l20.7-8.5c.8-.3 1.4-.7 1.9-1.2.4-.4.7-1 .7-1.6s-.2-1.1-.6-1.6c-.5-.5-1.1-.9-1.9-1.2l-2.6-1.1 2.6-1.1c.8-.3 1.4-.7 1.9-1.2.4-.4.7-1 .7-1.6 0-.6-.3-1.2-.7-1.6-.5-.5-1.1-.8-1.9-1.2l-2.6-1.1 2.6-1.1c.8-.3 1.4-.7 1.9-1.2.4-.5.7-1 .7-1.6 0-.6-.3-1.2-.7-1.6-.5-.4-1.1-.8-1.9-1.2l-20.7-8.1c-1.6-.6-3.5-.9-5.5-.9zm0 1.3c1.8 0 3.6.3 5 .8l20.7 8.5c.7.2 1.2.6 1.4.9.3.3.3.5.3.7s0 .4-.3.7c-.3.3-.8.6-1.4.9l-20.7 8.5c-2.7 1.1-7.3 1.1-10 0l-20.7-8.6c-.7-.3-1.2-.6-1.4-.9-.4-.2-.4-.5-.4-.6s0-.4.3-.7.8-.6 1.4-.9l20.7-8.5c1.5-.6 3.3-.8 5.1-.8zm-21.9 15.4l16.4 6.7c3.1 1.3 7.8 1.3 10.9 0l16.5-6.8 3.8 1.5c.7.3 1.2.6 1.4.9.3.2.3.5.3.7 0 .2 0 .4-.3.7-.3.3-.8.6-1.4.9l-20.7 8.5c-2.7 1.1-7.3 1.1-10 0l-20.7-8.4c-.7-.3-1.2-.6-1.4-.9-.4-.3-.4-.5-.4-.7 0-.2 0-.4.3-.7.3-.3.8-.6 1.4-.9l3.9-1.5zm0 7.6l16.4 6.8c3.1 1.3 7.8 1.3 10.9 0l16.5-6.8 3.8 1.5c.7.3 1.2.6 1.4.9.3.3.3.5.3.7s0 .4-.3.7c-.3.3-.8.6-1.4.9l-20.7 8.5c-2.7 1.1-7.3 1.1-10 0l-20.7-8.5c-.7-.3-1.2-.6-1.4-.9-.4-.2-.4-.5-.4-.7s0-.4.3-.7c.3-.3.8-.6 1.4-.9l3.9-1.5z"/></svg>